<svg xmlns="http://www.w3.org/2000/svg" width="60" height="60" viewBox="0 0 60 60" fill="none">
  <path d="M30 5C24.5 5 20 9.5 20 15V35C20 40.5 24.5 45 30 45C35.5 45 40 40.5 40 35V15C40 9.5 35.5 5 30 5Z" fill="#e74c3c" fill-opacity="0.9"/>
  <path d="M30 47C27.2 47 25 49.2 25 52C25 54.8 27.2 57 30 57C32.8 57 35 54.8 35 52C35 49.2 32.8 47 30 47Z" fill="#e74c3c" fill-opacity="0.9"/>
  <path d="M42 35H18C16.3 35 15 36.3 15 38C15 39.7 16.3 41 18 41H42C43.7 41 45 39.7 45 38C45 36.3 43.7 35 42 35Z" fill="#e74c3c" fill-opacity="0.9"/>
  <path d="M30 5C29.4 5 29 4.6 29 4V1C29 0.4 29.4 0 30 0C30.6 0 31 0.4 31 1V4C31 4.6 30.6 5 30 5Z" fill="#e74c3c" fill-opacity="0.9"/>
  <circle cx="30" cy="27" r="5" fill="#f5f5f5" fill-opacity="0.7"/>
</svg> 