<svg xmlns="http://www.w3.org/2000/svg" width="30" height="30" viewBox="0 0 30 30" fill="none">
  <path d="M15 3C12.25 3 10 5.25 10 8V18C10 20.75 12.25 23 15 23C17.75 23 20 20.75 20 18V8C20 5.25 17.75 3 15 3Z" fill="#e74c3c" fill-opacity="0.85"/>
  <path d="M15 24C13.6 24 12.5 25.1 12.5 26.5C12.5 27.9 13.6 29 15 29C16.4 29 17.5 27.9 17.5 26.5C17.5 25.1 16.4 24 15 24Z" fill="#e74c3c" fill-opacity="0.85"/>
  <path d="M21 18H9C8.15 18 7.5 18.65 7.5 19.5C7.5 20.35 8.15 21 9 21H21C21.85 21 22.5 20.35 22.5 19.5C22.5 18.65 21.85 18 21 18Z" fill="#e74c3c" fill-opacity="0.85"/>
  <path d="M15 3C14.7 3 14.5 2.8 14.5 2.5V1C14.5 0.7 14.7 0.5 15 0.5C15.3 0.5 15.5 0.7 15.5 1V2.5C15.5 2.8 15.3 3 15 3Z" fill="#e74c3c" fill-opacity="0.85"/>
  <circle cx="15" cy="13.5" r="2.5" fill="#f5f5f5" fill-opacity="0.7"/>
  <path d="M10 14C9.5 13.5 9.5 12.5 10 12L15 8L20 12C20.5 12.5 20.5 13.5 20 14" stroke="#e74c3c" stroke-width="0.5" stroke-opacity="0.8"/>
</svg> 